grf
version=1
nRows=11
nColumns=37
inDegrees=no
endheader
time	ground_force_1_vx	ground_force_1_vy	ground_force_1_vz	ground_force_1_px	ground_force_1_py	ground_force_1_pz	ground_moment_1_mx	ground_moment_1_my	ground_moment_1_mz	ground_force_2_vx	ground_force_2_vy	ground_force_2_vz	ground_force_2_px	ground_force_2_py	ground_force_2_pz	ground_moment_2_mx	ground_moment_2_my	ground_moment_2_mz	ground_force_3_vx	ground_force_3_vy	ground_force_3_vz	ground_force_3_px	ground_force_3_py	ground_force_3_pz	ground_moment_3_mx	ground_moment_3_my	ground_moment_3_mz	ground_force_4_vx	ground_force_4_vy	ground_force_4_vz	ground_force_4_px	ground_force_4_py	ground_force_4_pz	ground_moment_4_mx	ground_moment_4_my	ground_moment_4_mz
      0.00000000	      0.00000000	     -0.00000000	      0.00000000	      0.00000000	      0.00000000	      0.00000000	      0.00000000	      0.00000000	      0.00000000	     -1.92557383	     34.85684967	   -339.66674805	   -266.67882051	  -1093.85089576	      0.00000000	     -0.00000000	      0.00000000	   2046.73039922	      2.57260974	    -34.62862037	   -445.92614746	   -269.62971957	   -755.63416742	      0.00000000	      0.00000000	     -0.00000000	  -2189.18587847	      0.00000000	     -0.00000000	      0.00000000	      0.00000000	      0.00000000	      0.00000000	      0.00000000	      0.00000000	      0.00000000
      0.01000000	      0.00000000	     -0.00000000	      0.00000000	      0.00000000	      0.00000000	      0.00000000	      0.00000000	      0.00000000	      0.00000000	     -2.38652563	     34.79852676	   -340.14306641	   -266.60082715	  -1093.54388017	      0.00000000	      0.00000000	      0.00000000	   1800.07283922	      2.22463780	    -34.84353276	   -443.62664795	   -269.59353540	   -757.21681015	      0.00000000	      0.00000000	     -0.00000000	  -1992.04364537	      0.00000000	     -0.00000000	      0.00000000	      0.00000000	      0.00000000	      0.00000000	      0.00000000	      0.00000000	      0.00000000
      0.02000000	      0.00000000	     -0.00000000	      0.00000000	      0.00000000	      0.00000000	      0.00000000	      0.00000000	      0.00000000	      0.00000000	     -1.92543292	     34.35204315	   -340.90597534	   -266.85331113	  -1094.42710101	      0.00000000	      0.00000000	      0.00000000	   1999.68190249	      2.20292287	    -34.85785694	   -444.03393555	   -269.30711513	   -755.86049358	      0.00000000	      0.00000000	     -0.00000000	  -2127.66573296	      0.00000000	     -0.00000000	      0.00000000	      0.00000000	      0.00000000	      0.00000000	      0.00000000	      0.00000000	      0.00000000
      0.03000000	      0.00000000	     -0.00000000	      0.00000000	      0.00000000	      0.00000000	      0.00000000	      0.00000000	      0.00000000	      0.00000000	     -1.95584536	     34.39644623	   -342.05697632	   -267.06778083	  -1093.81970961	      0.00000000	      0.00000000	      0.00000000	   1989.41007733	      2.01806029	    -34.49694460	   -443.04528809	   -269.61168836	   -756.50863005	      0.00000000	      0.00000000	     -0.00000000	  -2064.43527124	      0.00000000	     -0.00000000	      0.00000000	      0.00000000	      0.00000000	      0.00000000	      0.00000000	      0.00000000	      0.00000000
      0.04000000	      0.00000000	     -0.00000000	      0.00000000	      0.00000000	      0.00000000	      0.00000000	      0.00000000	      0.00000000	      0.00000000	     -1.90253866	     34.71536255	   -343.02786255	   -266.79070672	  -1093.52754308	      0.00000000	      0.00000000	      0.00000000	   2065.64054329	      1.99540504	    -34.53378313	   -442.37512207	   -269.34985161	   -756.79106665	      0.00000000	      0.00000000	     -0.00000000	  -2062.59626716	      0.00000000	     -0.00000000	      0.00000000	      0.00000000	      0.00000000	      0.00000000	      0.00000000	      0.00000000	      0.00000000
      0.05000000	      0.00000000	     -0.00000000	      0.00000000	      0.00000000	      0.00000000	      0.00000000	      0.00000000	      0.00000000	      0.00000000	     -2.14105225	     34.94493866	   -342.67556763	   -266.28221609	  -1094.27202006	      0.00000000	      0.00000000	      0.00000000	   1934.50359128	      2.06922564	    -34.42286319	   -439.90670776	   -268.80679418	   -757.51804601	      0.00000000	      0.00000000	     -0.00000000	  -2061.61579448	      0.00000000	     -0.00000000	      0.00000000	      0.00000000	      0.00000000	      0.00000000	      0.00000000	      0.00000000	      0.00000000
      0.06000000	      0.00000000	     -0.00000000	      0.00000000	      0.00000000	      0.00000000	      0.00000000	      0.00000000	      0.00000000	      0.00000000	     -2.09467363	     34.60576630	   -342.37969971	   -266.43445525	  -1094.07684272	      0.00000000	      0.00000000	      0.00000000	   1976.52234553	      2.21203648	    -34.21753330	   -442.35253906	   -269.18059537	   -755.68513346	      0.00000000	      0.00000000	     -0.00000000	  -2132.95957616	      0.00000000	     -0.00000000	      0.00000000	      0.00000000	      0.00000000	      0.00000000	      0.00000000	      0.00000000	      0.00000000
      0.07000000	      0.00000000	     -0.00000000	      0.00000000	      0.00000000	      0.00000000	      0.00000000	      0.00000000	      0.00000000	      0.00000000	     -2.08013463	     34.66249847	   -343.08630371	   -266.55397228	  -1093.53064030	      0.00000000	      0.00000000	     -0.00000000	   1967.42722887	      2.28339206	    -34.26881429	   -439.96609497	   -269.56410110	   -756.85685122	      0.00000000	      0.00000000	     -0.00000000	  -2100.18185071	      0.00000000	     -0.00000000	      0.00000000	      0.00000000	      0.00000000	      0.00000000	      0.00000000	      0.00000000	      0.00000000
      0.08000000	      0.00000000	     -0.00000000	      0.00000000	      0.00000000	      0.00000000	      0.00000000	      0.00000000	      0.00000000	      0.00000000	     -1.81220150	     34.49346924	   -343.49520874	   -265.83433228	  -1094.81659133	      0.00000000	      0.00000000	      0.00000000	   2053.27067713	      2.09171545	    -34.11537952	   -439.72885132	   -269.34153839	   -756.15695934	      0.00000000	      0.00000000	     -0.00000000	  -2054.37810184	      0.00000000	     -0.00000000	      0.00000000	      0.00000000	      0.00000000	      0.00000000	      0.00000000	      0.00000000	      0.00000000
      0.09000000	      0.00000000	     -0.00000000	      0.00000000	      0.00000000	      0.00000000	      0.00000000	      0.00000000	      0.00000000	      0.00000000	     -1.97649622	     34.82620239	   -343.75387573	   -266.64458630	  -1093.88926252	      0.00000000	     -0.00000000	     -0.00000000	   2001.83497283	      2.29257740	    -33.94849797	   -438.97610474	   -269.56405565	   -756.62062175	      0.00000000	      0.00000000	     -0.00000000	  -2110.57679496	      0.00000000	     -0.00000000	      0.00000000	      0.00000000	      0.00000000	      0.00000000	      0.00000000	      0.00000000	      0.00000000
      0.10000000	      0.00000000	     -0.00000000	      0.00000000	      0.00000000	      0.00000000	      0.00000000	      0.00000000	      0.00000000	      0.00000000	     -2.11362386	     34.52087402	   -344.28271484	   -265.52100934	  -1094.06476753	      0.00000000	      0.00000000	      0.00000000	   1925.73485940	      1.81169307	    -34.11579911	   -438.33279419	   -268.72818987	   -757.03398304	      0.00000000	      0.00000000	     -0.00000000	  -2102.60314677	      0.00000000	     -0.00000000	      0.00000000	      0.00000000	      0.00000000	      0.00000000	      0.00000000	      0.00000000	      0.00000000
